<mxfile host="app.diagrams.net" modified="2022-07-31T01:22:13.692Z" agent="5.0 (Windows NT 10.0; Win64; x64) AppleWebKit/537.36 (KHTML, like Gecko) Chrome/103.0.0.0 Safari/537.36" etag="I2OgIljHzIqUviiMA30c" version="20.2.2" type="github">
  <diagram id="PYATxyedYa0FszgpphmH" name="Halaman-1">
    <mxGraphModel dx="2200" dy="1262" grid="1" gridSize="10" guides="1" tooltips="1" connect="1" arrows="1" fold="1" page="1" pageScale="1" pageWidth="827" pageHeight="1169" math="0" shadow="0">
      <root>
        <mxCell id="0" />
        <mxCell id="1" parent="0" />
        <mxCell id="aMIYp8ddDQIwAxlFogpo-73" value="" style="rounded=0;whiteSpace=wrap;html=1;fontSize=10;strokeWidth=1;" vertex="1" parent="1">
          <mxGeometry x="835" y="180" width="655" height="590" as="geometry" />
        </mxCell>
        <mxCell id="aMIYp8ddDQIwAxlFogpo-2" value="" style="rounded=0;whiteSpace=wrap;html=1;" vertex="1" parent="1">
          <mxGeometry x="138" y="60" width="500" height="760" as="geometry" />
        </mxCell>
        <mxCell id="aMIYp8ddDQIwAxlFogpo-3" value="" style="verticalLabelPosition=middle;verticalAlign=middle;html=1;shape=trapezoid;perimeter=trapezoidPerimeter;whiteSpace=wrap;size=0.23;arcSize=10;flipV=1;labelPosition=center;align=center;" vertex="1" parent="1">
          <mxGeometry x="200" y="190" width="100" height="60" as="geometry" />
        </mxCell>
        <mxCell id="aMIYp8ddDQIwAxlFogpo-4" value="Mencari kos" style="text;html=1;strokeColor=none;fillColor=none;align=center;verticalAlign=middle;whiteSpace=wrap;rounded=0;" vertex="1" parent="1">
          <mxGeometry x="220" y="205" width="60" height="30" as="geometry" />
        </mxCell>
        <mxCell id="aMIYp8ddDQIwAxlFogpo-5" value="" style="verticalLabelPosition=middle;verticalAlign=middle;html=1;shape=trapezoid;perimeter=trapezoidPerimeter;whiteSpace=wrap;size=0.23;arcSize=10;flipV=1;labelPosition=center;align=center;" vertex="1" parent="1">
          <mxGeometry x="200" y="280" width="100" height="60" as="geometry" />
        </mxCell>
        <mxCell id="aMIYp8ddDQIwAxlFogpo-6" value="Temukan kos" style="text;html=1;strokeColor=none;fillColor=none;align=center;verticalAlign=middle;whiteSpace=wrap;rounded=0;" vertex="1" parent="1">
          <mxGeometry x="220" y="295" width="60" height="30" as="geometry" />
        </mxCell>
        <mxCell id="aMIYp8ddDQIwAxlFogpo-7" value="" style="verticalLabelPosition=middle;verticalAlign=middle;html=1;shape=trapezoid;perimeter=trapezoidPerimeter;whiteSpace=wrap;size=0.23;arcSize=10;flipV=1;labelPosition=center;align=center;" vertex="1" parent="1">
          <mxGeometry x="200" y="370" width="100" height="60" as="geometry" />
        </mxCell>
        <mxCell id="aMIYp8ddDQIwAxlFogpo-8" value="Menanyakan ketersediaan kamar" style="text;html=1;strokeColor=none;fillColor=none;align=center;verticalAlign=middle;whiteSpace=wrap;rounded=0;" vertex="1" parent="1">
          <mxGeometry x="220" y="385" width="60" height="30" as="geometry" />
        </mxCell>
        <mxCell id="aMIYp8ddDQIwAxlFogpo-9" value="" style="verticalLabelPosition=middle;verticalAlign=middle;html=1;shape=trapezoid;perimeter=trapezoidPerimeter;whiteSpace=wrap;size=0.23;arcSize=10;flipV=1;labelPosition=center;align=center;" vertex="1" parent="1">
          <mxGeometry x="200" y="510" width="100" height="60" as="geometry" />
        </mxCell>
        <mxCell id="aMIYp8ddDQIwAxlFogpo-10" value="Menanyakan harga kamar" style="text;html=1;strokeColor=none;fillColor=none;align=center;verticalAlign=middle;whiteSpace=wrap;rounded=0;" vertex="1" parent="1">
          <mxGeometry x="220" y="525" width="60" height="30" as="geometry" />
        </mxCell>
        <mxCell id="aMIYp8ddDQIwAxlFogpo-13" value="" style="verticalLabelPosition=middle;verticalAlign=middle;html=1;shape=trapezoid;perimeter=trapezoidPerimeter;whiteSpace=wrap;size=0.23;arcSize=10;flipV=1;labelPosition=center;align=center;" vertex="1" parent="1">
          <mxGeometry x="200" y="600" width="100" height="60" as="geometry" />
        </mxCell>
        <mxCell id="aMIYp8ddDQIwAxlFogpo-14" value="Mendaftar" style="text;html=1;strokeColor=none;fillColor=none;align=center;verticalAlign=middle;whiteSpace=wrap;rounded=0;" vertex="1" parent="1">
          <mxGeometry x="220" y="615" width="60" height="30" as="geometry" />
        </mxCell>
        <mxCell id="aMIYp8ddDQIwAxlFogpo-15" value="" style="verticalLabelPosition=middle;verticalAlign=middle;html=1;shape=trapezoid;perimeter=trapezoidPerimeter;whiteSpace=wrap;size=0.23;arcSize=10;flipV=1;labelPosition=center;align=center;" vertex="1" parent="1">
          <mxGeometry x="200" y="690" width="100" height="60" as="geometry" />
        </mxCell>
        <mxCell id="aMIYp8ddDQIwAxlFogpo-16" value="Masuk kos" style="text;html=1;strokeColor=none;fillColor=none;align=center;verticalAlign=middle;whiteSpace=wrap;rounded=0;" vertex="1" parent="1">
          <mxGeometry x="220" y="705" width="60" height="30" as="geometry" />
        </mxCell>
        <mxCell id="aMIYp8ddDQIwAxlFogpo-17" value="" style="verticalLabelPosition=middle;verticalAlign=middle;html=1;shape=trapezoid;perimeter=trapezoidPerimeter;whiteSpace=wrap;size=0.23;arcSize=10;flipV=1;labelPosition=center;align=center;" vertex="1" parent="1">
          <mxGeometry x="470" y="370" width="100" height="60" as="geometry" />
        </mxCell>
        <mxCell id="aMIYp8ddDQIwAxlFogpo-18" value="Menginformasikan&lt;br style=&quot;font-size: 10px;&quot;&gt;ketersediaan kamar&lt;br style=&quot;font-size: 10px;&quot;&gt;" style="text;html=1;strokeColor=none;fillColor=none;align=center;verticalAlign=middle;whiteSpace=wrap;rounded=0;fontSize=10;" vertex="1" parent="1">
          <mxGeometry x="490" y="385" width="60" height="30" as="geometry" />
        </mxCell>
        <mxCell id="aMIYp8ddDQIwAxlFogpo-19" value="" style="verticalLabelPosition=middle;verticalAlign=middle;html=1;shape=trapezoid;perimeter=trapezoidPerimeter;whiteSpace=wrap;size=0.23;arcSize=10;flipV=1;labelPosition=center;align=center;" vertex="1" parent="1">
          <mxGeometry x="470" y="510" width="100" height="60" as="geometry" />
        </mxCell>
        <mxCell id="aMIYp8ddDQIwAxlFogpo-20" value="Menginfokan harga kamar" style="text;html=1;strokeColor=none;fillColor=none;align=center;verticalAlign=middle;whiteSpace=wrap;rounded=0;" vertex="1" parent="1">
          <mxGeometry x="490" y="525" width="60" height="30" as="geometry" />
        </mxCell>
        <mxCell id="aMIYp8ddDQIwAxlFogpo-21" value="" style="strokeWidth=1;html=1;shape=mxgraph.flowchart.decision;whiteSpace=wrap;" vertex="1" parent="1">
          <mxGeometry x="485" y="440" width="70" height="60" as="geometry" />
        </mxCell>
        <mxCell id="aMIYp8ddDQIwAxlFogpo-22" value="" style="strokeWidth=1;html=1;shape=mxgraph.flowchart.decision;whiteSpace=wrap;" vertex="1" parent="1">
          <mxGeometry x="490" y="600" width="70" height="60" as="geometry" />
        </mxCell>
        <mxCell id="aMIYp8ddDQIwAxlFogpo-23" value="Tersedia?" style="text;html=1;strokeColor=none;fillColor=none;align=center;verticalAlign=middle;whiteSpace=wrap;rounded=0;fontSize=10;" vertex="1" parent="1">
          <mxGeometry x="490" y="455" width="60" height="30" as="geometry" />
        </mxCell>
        <mxCell id="aMIYp8ddDQIwAxlFogpo-24" value="Cocok?" style="text;html=1;strokeColor=none;fillColor=none;align=center;verticalAlign=middle;whiteSpace=wrap;rounded=0;" vertex="1" parent="1">
          <mxGeometry x="497" y="615" width="60" height="30" as="geometry" />
        </mxCell>
        <mxCell id="aMIYp8ddDQIwAxlFogpo-27" value="" style="endArrow=classic;html=1;rounded=0;fontSize=10;exitX=0.5;exitY=1;exitDx=0;exitDy=0;" edge="1" parent="1" source="aMIYp8ddDQIwAxlFogpo-3" target="aMIYp8ddDQIwAxlFogpo-5">
          <mxGeometry width="50" height="50" relative="1" as="geometry">
            <mxPoint x="350" y="490" as="sourcePoint" />
            <mxPoint x="400" y="440" as="targetPoint" />
          </mxGeometry>
        </mxCell>
        <mxCell id="aMIYp8ddDQIwAxlFogpo-29" value="" style="endArrow=classic;html=1;rounded=0;fontSize=10;exitX=0.5;exitY=1;exitDx=0;exitDy=0;entryX=0.5;entryY=0;entryDx=0;entryDy=0;" edge="1" parent="1" source="aMIYp8ddDQIwAxlFogpo-5" target="aMIYp8ddDQIwAxlFogpo-7">
          <mxGeometry width="50" height="50" relative="1" as="geometry">
            <mxPoint x="260" y="260" as="sourcePoint" />
            <mxPoint x="260" y="289.9999999999999" as="targetPoint" />
          </mxGeometry>
        </mxCell>
        <mxCell id="aMIYp8ddDQIwAxlFogpo-30" value="" style="endArrow=classic;html=1;rounded=0;fontSize=10;exitX=1;exitY=0.5;exitDx=0;exitDy=0;entryX=0;entryY=0.5;entryDx=0;entryDy=0;" edge="1" parent="1" source="aMIYp8ddDQIwAxlFogpo-7" target="aMIYp8ddDQIwAxlFogpo-17">
          <mxGeometry width="50" height="50" relative="1" as="geometry">
            <mxPoint x="260" y="349.9999999999999" as="sourcePoint" />
            <mxPoint x="260" y="379.9999999999999" as="targetPoint" />
          </mxGeometry>
        </mxCell>
        <mxCell id="aMIYp8ddDQIwAxlFogpo-31" value="" style="endArrow=classic;html=1;rounded=0;fontSize=10;exitX=0.5;exitY=1;exitDx=0;exitDy=0;entryX=0.5;entryY=0;entryDx=0;entryDy=0;entryPerimeter=0;" edge="1" parent="1" source="aMIYp8ddDQIwAxlFogpo-17" target="aMIYp8ddDQIwAxlFogpo-21">
          <mxGeometry width="50" height="50" relative="1" as="geometry">
            <mxPoint x="298.5" y="409.9999999999999" as="sourcePoint" />
            <mxPoint x="491.5000000000002" y="409.9999999999999" as="targetPoint" />
          </mxGeometry>
        </mxCell>
        <mxCell id="aMIYp8ddDQIwAxlFogpo-32" value="" style="endArrow=classic;html=1;rounded=0;fontSize=10;entryX=1;entryY=0.5;entryDx=0;entryDy=0;exitX=1;exitY=0.5;exitDx=0;exitDy=0;" edge="1" parent="1" source="aMIYp8ddDQIwAxlFogpo-24" target="aMIYp8ddDQIwAxlFogpo-3">
          <mxGeometry width="50" height="50" relative="1" as="geometry">
            <mxPoint x="350" y="490" as="sourcePoint" />
            <mxPoint x="400" y="440" as="targetPoint" />
            <Array as="points">
              <mxPoint x="590" y="630" />
              <mxPoint x="590" y="220" />
            </Array>
          </mxGeometry>
        </mxCell>
        <mxCell id="aMIYp8ddDQIwAxlFogpo-34" value="" style="endArrow=classic;html=1;rounded=0;fontSize=10;entryX=1;entryY=1;entryDx=0;entryDy=0;exitX=1;exitY=0.5;exitDx=0;exitDy=0;exitPerimeter=0;" edge="1" parent="1" source="aMIYp8ddDQIwAxlFogpo-21" target="aMIYp8ddDQIwAxlFogpo-4">
          <mxGeometry width="50" height="50" relative="1" as="geometry">
            <mxPoint x="350" y="490" as="sourcePoint" />
            <mxPoint x="400" y="440" as="targetPoint" />
            <Array as="points">
              <mxPoint x="580" y="470" />
              <mxPoint x="580" y="235" />
            </Array>
          </mxGeometry>
        </mxCell>
        <mxCell id="aMIYp8ddDQIwAxlFogpo-35" value="" style="endArrow=classic;html=1;rounded=0;fontSize=10;exitX=0;exitY=0.5;exitDx=0;exitDy=0;entryX=0.5;entryY=0;entryDx=0;entryDy=0;" edge="1" parent="1" source="aMIYp8ddDQIwAxlFogpo-23" target="aMIYp8ddDQIwAxlFogpo-9">
          <mxGeometry width="50" height="50" relative="1" as="geometry">
            <mxPoint x="350" y="490" as="sourcePoint" />
            <mxPoint x="400" y="440" as="targetPoint" />
            <Array as="points">
              <mxPoint x="250" y="470" />
            </Array>
          </mxGeometry>
        </mxCell>
        <mxCell id="aMIYp8ddDQIwAxlFogpo-36" value="" style="endArrow=classic;html=1;rounded=0;fontSize=10;exitX=1;exitY=0.5;exitDx=0;exitDy=0;entryX=0;entryY=0.5;entryDx=0;entryDy=0;" edge="1" parent="1" source="aMIYp8ddDQIwAxlFogpo-9" target="aMIYp8ddDQIwAxlFogpo-19">
          <mxGeometry width="50" height="50" relative="1" as="geometry">
            <mxPoint x="300" y="490" as="sourcePoint" />
            <mxPoint x="350" y="440" as="targetPoint" />
          </mxGeometry>
        </mxCell>
        <mxCell id="aMIYp8ddDQIwAxlFogpo-37" value="" style="endArrow=classic;html=1;rounded=0;fontSize=10;entryX=0.5;entryY=0;entryDx=0;entryDy=0;entryPerimeter=0;exitX=0.5;exitY=1;exitDx=0;exitDy=0;" edge="1" parent="1" source="aMIYp8ddDQIwAxlFogpo-19" target="aMIYp8ddDQIwAxlFogpo-22">
          <mxGeometry width="50" height="50" relative="1" as="geometry">
            <mxPoint x="300" y="580" as="sourcePoint" />
            <mxPoint x="350" y="530" as="targetPoint" />
          </mxGeometry>
        </mxCell>
        <mxCell id="aMIYp8ddDQIwAxlFogpo-38" value="" style="endArrow=classic;html=1;rounded=0;fontSize=10;entryX=0.5;entryY=0;entryDx=0;entryDy=0;exitX=0.5;exitY=1;exitDx=0;exitDy=0;" edge="1" parent="1" source="aMIYp8ddDQIwAxlFogpo-13" target="aMIYp8ddDQIwAxlFogpo-15">
          <mxGeometry width="50" height="50" relative="1" as="geometry">
            <mxPoint x="200" y="610" as="sourcePoint" />
            <mxPoint x="250" y="560" as="targetPoint" />
          </mxGeometry>
        </mxCell>
        <mxCell id="aMIYp8ddDQIwAxlFogpo-39" value="" style="rounded=0;whiteSpace=wrap;html=1;fontSize=10;strokeWidth=1;" vertex="1" parent="1">
          <mxGeometry x="138" y="60" width="502" height="60" as="geometry" />
        </mxCell>
        <mxCell id="aMIYp8ddDQIwAxlFogpo-40" value="" style="endArrow=none;html=1;rounded=0;fontSize=10;entryX=0.5;entryY=0;entryDx=0;entryDy=0;exitX=0.5;exitY=1;exitDx=0;exitDy=0;" edge="1" parent="1" source="aMIYp8ddDQIwAxlFogpo-2" target="aMIYp8ddDQIwAxlFogpo-39">
          <mxGeometry width="50" height="50" relative="1" as="geometry">
            <mxPoint x="200" y="290" as="sourcePoint" />
            <mxPoint x="250" y="240" as="targetPoint" />
          </mxGeometry>
        </mxCell>
        <mxCell id="aMIYp8ddDQIwAxlFogpo-41" value="&lt;b&gt;Pencari Kos&lt;/b&gt;" style="text;html=1;strokeColor=none;fillColor=none;align=center;verticalAlign=middle;whiteSpace=wrap;rounded=0;fontSize=10;" vertex="1" parent="1">
          <mxGeometry x="220" y="80" width="60" height="30" as="geometry" />
        </mxCell>
        <mxCell id="aMIYp8ddDQIwAxlFogpo-42" value="&lt;b&gt;Penyedia Kos&lt;/b&gt;" style="text;html=1;strokeColor=none;fillColor=none;align=center;verticalAlign=middle;whiteSpace=wrap;rounded=0;fontSize=10;" vertex="1" parent="1">
          <mxGeometry x="468" y="80" width="85" height="30" as="geometry" />
        </mxCell>
        <mxCell id="aMIYp8ddDQIwAxlFogpo-43" value="Pemilik kos" style="shape=umlActor;verticalLabelPosition=bottom;verticalAlign=top;html=1;outlineConnect=0;fontSize=10;strokeWidth=1;" vertex="1" parent="1">
          <mxGeometry x="880" y="400" width="30" height="60" as="geometry" />
        </mxCell>
        <mxCell id="aMIYp8ddDQIwAxlFogpo-44" value="" style="ellipse;whiteSpace=wrap;html=1;fontSize=10;strokeWidth=1;" vertex="1" parent="1">
          <mxGeometry x="1060" y="220" width="110" height="57.5" as="geometry" />
        </mxCell>
        <mxCell id="aMIYp8ddDQIwAxlFogpo-45" value="" style="ellipse;whiteSpace=wrap;html=1;fontSize=10;strokeWidth=1;" vertex="1" parent="1">
          <mxGeometry x="1080" y="310" width="100" height="60" as="geometry" />
        </mxCell>
        <mxCell id="aMIYp8ddDQIwAxlFogpo-46" value="" style="ellipse;whiteSpace=wrap;html=1;fontSize=10;strokeWidth=1;" vertex="1" parent="1">
          <mxGeometry x="1090" y="390" width="110" height="70" as="geometry" />
        </mxCell>
        <mxCell id="aMIYp8ddDQIwAxlFogpo-48" value="" style="ellipse;whiteSpace=wrap;html=1;fontSize=10;strokeWidth=1;" vertex="1" parent="1">
          <mxGeometry x="1100" y="485" width="110" height="65" as="geometry" />
        </mxCell>
        <mxCell id="aMIYp8ddDQIwAxlFogpo-49" value="" style="ellipse;whiteSpace=wrap;html=1;fontSize=10;strokeWidth=1;" vertex="1" parent="1">
          <mxGeometry x="1105" y="570" width="110" height="65" as="geometry" />
        </mxCell>
        <mxCell id="aMIYp8ddDQIwAxlFogpo-50" value="" style="ellipse;whiteSpace=wrap;html=1;fontSize=10;strokeWidth=1;" vertex="1" parent="1">
          <mxGeometry x="1107.5" y="662.5" width="105" height="65" as="geometry" />
        </mxCell>
        <mxCell id="aMIYp8ddDQIwAxlFogpo-52" value="Beranda" style="text;html=1;strokeColor=none;fillColor=none;align=center;verticalAlign=middle;whiteSpace=wrap;rounded=0;fontSize=10;" vertex="1" parent="1">
          <mxGeometry x="1085" y="235" width="60" height="30" as="geometry" />
        </mxCell>
        <mxCell id="aMIYp8ddDQIwAxlFogpo-53" value="tentang" style="text;html=1;strokeColor=none;fillColor=none;align=center;verticalAlign=middle;whiteSpace=wrap;rounded=0;fontSize=10;" vertex="1" parent="1">
          <mxGeometry x="1100" y="325" width="60" height="30" as="geometry" />
        </mxCell>
        <mxCell id="aMIYp8ddDQIwAxlFogpo-54" value="Login" style="text;html=1;strokeColor=none;fillColor=none;align=center;verticalAlign=middle;whiteSpace=wrap;rounded=0;fontSize=10;" vertex="1" parent="1">
          <mxGeometry x="1115" y="410" width="60" height="30" as="geometry" />
        </mxCell>
        <mxCell id="aMIYp8ddDQIwAxlFogpo-55" value="Data kos" style="text;html=1;strokeColor=none;fillColor=none;align=center;verticalAlign=middle;whiteSpace=wrap;rounded=0;fontSize=10;" vertex="1" parent="1">
          <mxGeometry x="1125" y="510" width="60" height="30" as="geometry" />
        </mxCell>
        <mxCell id="aMIYp8ddDQIwAxlFogpo-56" value="Pesan kos" style="text;html=1;strokeColor=none;fillColor=none;align=center;verticalAlign=middle;whiteSpace=wrap;rounded=0;fontSize=10;" vertex="1" parent="1">
          <mxGeometry x="1130" y="590" width="60" height="30" as="geometry" />
        </mxCell>
        <mxCell id="aMIYp8ddDQIwAxlFogpo-57" value="Transaksi" style="text;html=1;strokeColor=none;fillColor=none;align=center;verticalAlign=middle;whiteSpace=wrap;rounded=0;fontSize=10;" vertex="1" parent="1">
          <mxGeometry x="1130" y="680" width="60" height="30" as="geometry" />
        </mxCell>
        <mxCell id="aMIYp8ddDQIwAxlFogpo-58" value="Admiin" style="shape=umlActor;verticalLabelPosition=bottom;verticalAlign=top;html=1;outlineConnect=0;fontSize=10;strokeWidth=1;" vertex="1" parent="1">
          <mxGeometry x="1405" y="337" width="30" height="60" as="geometry" />
        </mxCell>
        <mxCell id="aMIYp8ddDQIwAxlFogpo-59" value="Pelanggan" style="shape=umlActor;verticalLabelPosition=bottom;verticalAlign=top;html=1;outlineConnect=0;fontSize=10;strokeWidth=1;" vertex="1" parent="1">
          <mxGeometry x="1360" y="520" width="30" height="60" as="geometry" />
        </mxCell>
        <mxCell id="aMIYp8ddDQIwAxlFogpo-61" value="" style="endArrow=classic;html=1;rounded=0;fontSize=10;exitX=1;exitY=0.3333333333333333;exitDx=0;exitDy=0;exitPerimeter=0;entryX=0;entryY=0.5;entryDx=0;entryDy=0;" edge="1" parent="1" source="aMIYp8ddDQIwAxlFogpo-43" target="aMIYp8ddDQIwAxlFogpo-44">
          <mxGeometry width="50" height="50" relative="1" as="geometry">
            <mxPoint x="1030" y="410" as="sourcePoint" />
            <mxPoint x="1080" y="360" as="targetPoint" />
          </mxGeometry>
        </mxCell>
        <mxCell id="aMIYp8ddDQIwAxlFogpo-62" value="" style="endArrow=classic;html=1;rounded=0;fontSize=10;entryX=0;entryY=0.5;entryDx=0;entryDy=0;" edge="1" parent="1" target="aMIYp8ddDQIwAxlFogpo-45">
          <mxGeometry width="50" height="50" relative="1" as="geometry">
            <mxPoint x="910" y="420" as="sourcePoint" />
            <mxPoint x="1070.0000000000073" y="258.75" as="targetPoint" />
          </mxGeometry>
        </mxCell>
        <mxCell id="aMIYp8ddDQIwAxlFogpo-63" value="" style="endArrow=classic;html=1;rounded=0;fontSize=10;entryX=0;entryY=0.5;entryDx=0;entryDy=0;exitX=1;exitY=0.3333333333333333;exitDx=0;exitDy=0;exitPerimeter=0;" edge="1" parent="1" source="aMIYp8ddDQIwAxlFogpo-43" target="aMIYp8ddDQIwAxlFogpo-46">
          <mxGeometry width="50" height="50" relative="1" as="geometry">
            <mxPoint x="920" y="430" as="sourcePoint" />
            <mxPoint x="1090.000000000011" y="350" as="targetPoint" />
          </mxGeometry>
        </mxCell>
        <mxCell id="aMIYp8ddDQIwAxlFogpo-64" value="" style="endArrow=classic;html=1;rounded=0;fontSize=10;entryX=0;entryY=0.385;entryDx=0;entryDy=0;entryPerimeter=0;" edge="1" parent="1" target="aMIYp8ddDQIwAxlFogpo-48">
          <mxGeometry width="50" height="50" relative="1" as="geometry">
            <mxPoint x="910" y="420" as="sourcePoint" />
            <mxPoint x="1100" y="435" as="targetPoint" />
          </mxGeometry>
        </mxCell>
        <mxCell id="aMIYp8ddDQIwAxlFogpo-65" value="" style="endArrow=classic;html=1;rounded=0;fontSize=10;entryX=0;entryY=0.5;entryDx=0;entryDy=0;" edge="1" parent="1" target="aMIYp8ddDQIwAxlFogpo-50">
          <mxGeometry width="50" height="50" relative="1" as="geometry">
            <mxPoint x="910" y="420" as="sourcePoint" />
            <mxPoint x="1110" y="520.025" as="targetPoint" />
          </mxGeometry>
        </mxCell>
        <mxCell id="aMIYp8ddDQIwAxlFogpo-66" value="" style="endArrow=classic;html=1;rounded=0;fontSize=10;entryX=1;entryY=0.5;entryDx=0;entryDy=0;exitX=0;exitY=0.3333333333333333;exitDx=0;exitDy=0;exitPerimeter=0;" edge="1" parent="1" source="aMIYp8ddDQIwAxlFogpo-58" target="aMIYp8ddDQIwAxlFogpo-44">
          <mxGeometry width="50" height="50" relative="1" as="geometry">
            <mxPoint x="1130" y="420" as="sourcePoint" />
            <mxPoint x="1180" y="370" as="targetPoint" />
          </mxGeometry>
        </mxCell>
        <mxCell id="aMIYp8ddDQIwAxlFogpo-67" value="" style="endArrow=classic;html=1;rounded=0;fontSize=10;entryX=1;entryY=0.5;entryDx=0;entryDy=0;" edge="1" parent="1" target="aMIYp8ddDQIwAxlFogpo-45">
          <mxGeometry width="50" height="50" relative="1" as="geometry">
            <mxPoint x="1400" y="360" as="sourcePoint" />
            <mxPoint x="1180" y="258.75" as="targetPoint" />
          </mxGeometry>
        </mxCell>
        <mxCell id="aMIYp8ddDQIwAxlFogpo-68" value="" style="endArrow=classic;html=1;rounded=0;fontSize=10;entryX=1;entryY=0.5;entryDx=0;entryDy=0;" edge="1" parent="1" target="aMIYp8ddDQIwAxlFogpo-46">
          <mxGeometry width="50" height="50" relative="1" as="geometry">
            <mxPoint x="1400" y="360" as="sourcePoint" />
            <mxPoint x="1190" y="350" as="targetPoint" />
          </mxGeometry>
        </mxCell>
        <mxCell id="aMIYp8ddDQIwAxlFogpo-69" value="" style="endArrow=classic;html=1;rounded=0;fontSize=10;exitX=0;exitY=0.3333333333333333;exitDx=0;exitDy=0;exitPerimeter=0;entryX=1;entryY=0.5;entryDx=0;entryDy=0;" edge="1" parent="1" source="aMIYp8ddDQIwAxlFogpo-59" target="aMIYp8ddDQIwAxlFogpo-46">
          <mxGeometry width="50" height="50" relative="1" as="geometry">
            <mxPoint x="1110" y="520" as="sourcePoint" />
            <mxPoint x="1160" y="470" as="targetPoint" />
          </mxGeometry>
        </mxCell>
        <mxCell id="aMIYp8ddDQIwAxlFogpo-71" value="" style="endArrow=classic;html=1;rounded=0;fontSize=10;exitX=0;exitY=0.3333333333333333;exitDx=0;exitDy=0;exitPerimeter=0;entryX=1;entryY=0.5;entryDx=0;entryDy=0;" edge="1" parent="1" source="aMIYp8ddDQIwAxlFogpo-59" target="aMIYp8ddDQIwAxlFogpo-49">
          <mxGeometry width="50" height="50" relative="1" as="geometry">
            <mxPoint x="1110" y="520" as="sourcePoint" />
            <mxPoint x="1160" y="470" as="targetPoint" />
          </mxGeometry>
        </mxCell>
        <mxCell id="aMIYp8ddDQIwAxlFogpo-72" value="" style="endArrow=classic;html=1;rounded=0;fontSize=10;exitX=0;exitY=0.3333333333333333;exitDx=0;exitDy=0;exitPerimeter=0;entryX=1.005;entryY=0.403;entryDx=0;entryDy=0;entryPerimeter=0;" edge="1" parent="1" source="aMIYp8ddDQIwAxlFogpo-59" target="aMIYp8ddDQIwAxlFogpo-50">
          <mxGeometry width="50" height="50" relative="1" as="geometry">
            <mxPoint x="1370" y="550" as="sourcePoint" />
            <mxPoint x="1225.000000000005" y="612.5" as="targetPoint" />
          </mxGeometry>
        </mxCell>
        <mxCell id="aMIYp8ddDQIwAxlFogpo-74" value="" style="rounded=0;whiteSpace=wrap;html=1;fontSize=10;strokeWidth=1;" vertex="1" parent="1">
          <mxGeometry x="846.25" y="920" width="617.5" height="340" as="geometry" />
        </mxCell>
        <mxCell id="aMIYp8ddDQIwAxlFogpo-75" value="Admin" style="shape=umlActor;verticalLabelPosition=bottom;verticalAlign=top;html=1;outlineConnect=0;fontSize=10;strokeWidth=1;" vertex="1" parent="1">
          <mxGeometry x="900" y="950" width="30" height="60" as="geometry" />
        </mxCell>
        <mxCell id="aMIYp8ddDQIwAxlFogpo-79" value="" style="rounded=0;whiteSpace=wrap;html=1;fontSize=10;strokeWidth=1;" vertex="1" parent="1">
          <mxGeometry x="905" y="1060" width="20" height="60" as="geometry" />
        </mxCell>
        <mxCell id="aMIYp8ddDQIwAxlFogpo-81" value="" style="endArrow=none;html=1;rounded=0;fontSize=10;exitX=0.5;exitY=0;exitDx=0;exitDy=0;" edge="1" parent="1" source="aMIYp8ddDQIwAxlFogpo-79">
          <mxGeometry width="50" height="50" relative="1" as="geometry">
            <mxPoint x="1030" y="1100" as="sourcePoint" />
            <mxPoint x="915" y="1030" as="targetPoint" />
          </mxGeometry>
        </mxCell>
        <mxCell id="aMIYp8ddDQIwAxlFogpo-84" value="" style="shape=umlBoundary;whiteSpace=wrap;html=1;fontSize=10;strokeWidth=1;" vertex="1" parent="1">
          <mxGeometry x="1065" y="950" width="80" height="60" as="geometry" />
        </mxCell>
        <mxCell id="aMIYp8ddDQIwAxlFogpo-86" value=": Login" style="text;html=1;strokeColor=none;fillColor=none;align=center;verticalAlign=middle;whiteSpace=wrap;rounded=0;fontSize=10;" vertex="1" parent="1">
          <mxGeometry x="1040" y="1000" width="60" height="30" as="geometry" />
        </mxCell>
        <mxCell id="aMIYp8ddDQIwAxlFogpo-87" value="" style="endArrow=none;html=1;rounded=0;fontSize=10;exitX=0.5;exitY=0;exitDx=0;exitDy=0;" edge="1" parent="1" source="aMIYp8ddDQIwAxlFogpo-89">
          <mxGeometry width="50" height="50" relative="1" as="geometry">
            <mxPoint x="1073" y="1052" as="sourcePoint" />
            <mxPoint x="1073" y="1022" as="targetPoint" />
          </mxGeometry>
        </mxCell>
        <mxCell id="aMIYp8ddDQIwAxlFogpo-88" value="" style="rounded=0;whiteSpace=wrap;html=1;fontSize=10;strokeWidth=1;" vertex="1" parent="1">
          <mxGeometry x="1065" y="1050" width="15" height="20" as="geometry" />
        </mxCell>
        <mxCell id="aMIYp8ddDQIwAxlFogpo-89" value="" style="rounded=0;whiteSpace=wrap;html=1;fontSize=10;strokeWidth=1;" vertex="1" parent="1">
          <mxGeometry x="1065" y="1080" width="15" height="50" as="geometry" />
        </mxCell>
        <mxCell id="aMIYp8ddDQIwAxlFogpo-90" value="" style="rounded=0;whiteSpace=wrap;html=1;fontSize=10;strokeWidth=1;" vertex="1" parent="1">
          <mxGeometry x="1065" y="1157" width="15" height="16" as="geometry" />
        </mxCell>
        <mxCell id="aMIYp8ddDQIwAxlFogpo-91" value="" style="rounded=0;whiteSpace=wrap;html=1;fontSize=10;strokeWidth=1;" vertex="1" parent="1">
          <mxGeometry x="1210" y="1070" width="15" height="20" as="geometry" />
        </mxCell>
        <mxCell id="aMIYp8ddDQIwAxlFogpo-92" value="" style="rounded=0;whiteSpace=wrap;html=1;fontSize=10;strokeWidth=1;" vertex="1" parent="1">
          <mxGeometry x="1210" y="1100" width="15" height="50" as="geometry" />
        </mxCell>
        <mxCell id="aMIYp8ddDQIwAxlFogpo-93" value="" style="rounded=0;whiteSpace=wrap;html=1;fontSize=10;strokeWidth=1;" vertex="1" parent="1">
          <mxGeometry x="1345" y="1070" width="15" height="20" as="geometry" />
        </mxCell>
        <mxCell id="aMIYp8ddDQIwAxlFogpo-94" value="" style="rounded=0;whiteSpace=wrap;html=1;fontSize=10;strokeWidth=1;" vertex="1" parent="1">
          <mxGeometry x="1345" y="1140" width="15" height="50" as="geometry" />
        </mxCell>
        <mxCell id="aMIYp8ddDQIwAxlFogpo-95" value="" style="ellipse;shape=umlControl;whiteSpace=wrap;html=1;fontSize=10;strokeWidth=1;" vertex="1" parent="1">
          <mxGeometry x="1187.5" y="946" width="61.5" height="64" as="geometry" />
        </mxCell>
        <mxCell id="aMIYp8ddDQIwAxlFogpo-96" value=": Auth" style="text;html=1;strokeColor=none;fillColor=none;align=center;verticalAlign=middle;whiteSpace=wrap;rounded=0;fontSize=10;" vertex="1" parent="1">
          <mxGeometry x="1181" y="1010" width="60" height="30" as="geometry" />
        </mxCell>
        <mxCell id="aMIYp8ddDQIwAxlFogpo-97" value="Model login" style="text;html=1;strokeColor=none;fillColor=none;align=center;verticalAlign=middle;whiteSpace=wrap;rounded=0;fontSize=10;" vertex="1" parent="1">
          <mxGeometry x="1320" y="1010" width="60" height="30" as="geometry" />
        </mxCell>
        <mxCell id="aMIYp8ddDQIwAxlFogpo-98" value="" style="ellipse;shape=umlEntity;whiteSpace=wrap;html=1;fontSize=10;strokeWidth=1;" vertex="1" parent="1">
          <mxGeometry x="1325.5" y="950" width="55.5" height="52" as="geometry" />
        </mxCell>
        <mxCell id="aMIYp8ddDQIwAxlFogpo-99" value="" style="endArrow=open;endFill=1;endSize=12;html=1;rounded=0;fontSize=10;" edge="1" parent="1">
          <mxGeometry width="160" relative="1" as="geometry">
            <mxPoint x="925" y="1060" as="sourcePoint" />
            <mxPoint x="1060" y="1060" as="targetPoint" />
          </mxGeometry>
        </mxCell>
        <mxCell id="aMIYp8ddDQIwAxlFogpo-100" value="" style="endArrow=open;endFill=1;endSize=12;html=1;rounded=0;fontSize=10;" edge="1" parent="1">
          <mxGeometry width="160" relative="1" as="geometry">
            <mxPoint x="1077.5" y="1080" as="sourcePoint" />
            <mxPoint x="1210" y="1080" as="targetPoint" />
          </mxGeometry>
        </mxCell>
        <mxCell id="aMIYp8ddDQIwAxlFogpo-102" value="" style="endArrow=open;endFill=1;endSize=12;html=1;rounded=0;fontSize=10;" edge="1" parent="1">
          <mxGeometry width="160" relative="1" as="geometry">
            <mxPoint x="1225" y="1079.74" as="sourcePoint" />
            <mxPoint x="1340" y="1080" as="targetPoint" />
          </mxGeometry>
        </mxCell>
        <mxCell id="aMIYp8ddDQIwAxlFogpo-103" value="" style="endArrow=open;endFill=1;endSize=12;html=1;rounded=0;fontSize=10;entryX=1;entryY=0.5;entryDx=0;entryDy=0;exitX=0;exitY=0.5;exitDx=0;exitDy=0;" edge="1" parent="1" source="aMIYp8ddDQIwAxlFogpo-94" target="aMIYp8ddDQIwAxlFogpo-90">
          <mxGeometry width="160" relative="1" as="geometry">
            <mxPoint x="1215" y="1140" as="sourcePoint" />
            <mxPoint x="1330" y="1140.26" as="targetPoint" />
          </mxGeometry>
        </mxCell>
        <mxCell id="aMIYp8ddDQIwAxlFogpo-104" value="" style="endArrow=none;html=1;rounded=0;fontSize=10;exitX=0.5;exitY=0;exitDx=0;exitDy=0;" edge="1" parent="1" source="aMIYp8ddDQIwAxlFogpo-90">
          <mxGeometry width="50" height="50" relative="1" as="geometry">
            <mxPoint x="1072" y="1160" as="sourcePoint" />
            <mxPoint x="1072.24" y="1130" as="targetPoint" />
          </mxGeometry>
        </mxCell>
        <mxCell id="aMIYp8ddDQIwAxlFogpo-106" value="" style="endArrow=none;html=1;rounded=0;fontSize=10;" edge="1" parent="1">
          <mxGeometry width="50" height="50" relative="1" as="geometry">
            <mxPoint x="1072.24" y="1203" as="sourcePoint" />
            <mxPoint x="1072.48" y="1173" as="targetPoint" />
          </mxGeometry>
        </mxCell>
        <mxCell id="aMIYp8ddDQIwAxlFogpo-107" value="" style="endArrow=none;html=1;rounded=0;fontSize=10;" edge="1" parent="1">
          <mxGeometry width="50" height="50" relative="1" as="geometry">
            <mxPoint x="1072.24" y="1250" as="sourcePoint" />
            <mxPoint x="1072.48" y="1220" as="targetPoint" />
          </mxGeometry>
        </mxCell>
        <mxCell id="aMIYp8ddDQIwAxlFogpo-108" value="Cek login admin" style="text;html=1;strokeColor=none;fillColor=none;align=center;verticalAlign=middle;whiteSpace=wrap;rounded=0;fontSize=10;" vertex="1" parent="1">
          <mxGeometry x="1090" y="1050" width="95" height="30" as="geometry" />
        </mxCell>
        <mxCell id="aMIYp8ddDQIwAxlFogpo-109" value="data login admin" style="text;html=1;strokeColor=none;fillColor=none;align=center;verticalAlign=middle;whiteSpace=wrap;rounded=0;fontSize=10;" vertex="1" parent="1">
          <mxGeometry x="1225" y="1060" width="95" height="30" as="geometry" />
        </mxCell>
        <mxCell id="aMIYp8ddDQIwAxlFogpo-110" value="Informasi" style="text;html=1;strokeColor=none;fillColor=none;align=center;verticalAlign=middle;whiteSpace=wrap;rounded=0;fontSize=10;" vertex="1" parent="1">
          <mxGeometry x="1170" y="1143" width="95" height="30" as="geometry" />
        </mxCell>
        <mxCell id="aMIYp8ddDQIwAxlFogpo-111" value="" style="endArrow=none;html=1;rounded=0;fontSize=10;" edge="1" parent="1">
          <mxGeometry width="50" height="50" relative="1" as="geometry">
            <mxPoint x="1218" y="1100" as="sourcePoint" />
            <mxPoint x="1217.99" y="1090" as="targetPoint" />
          </mxGeometry>
        </mxCell>
        <mxCell id="aMIYp8ddDQIwAxlFogpo-112" value="" style="endArrow=none;html=1;rounded=0;fontSize=10;" edge="1" parent="1">
          <mxGeometry width="50" height="50" relative="1" as="geometry">
            <mxPoint x="1218" y="1170" as="sourcePoint" />
            <mxPoint x="1217.99" y="1150" as="targetPoint" />
          </mxGeometry>
        </mxCell>
        <mxCell id="aMIYp8ddDQIwAxlFogpo-113" value="" style="endArrow=none;html=1;rounded=0;fontSize=10;" edge="1" parent="1">
          <mxGeometry width="50" height="50" relative="1" as="geometry">
            <mxPoint x="1218.14" y="1200" as="sourcePoint" />
            <mxPoint x="1218.13" y="1180" as="targetPoint" />
          </mxGeometry>
        </mxCell>
        <mxCell id="aMIYp8ddDQIwAxlFogpo-114" value="" style="endArrow=none;html=1;rounded=0;fontSize=10;" edge="1" parent="1">
          <mxGeometry width="50" height="50" relative="1" as="geometry">
            <mxPoint x="1218" y="1240" as="sourcePoint" />
            <mxPoint x="1218.13" y="1220" as="targetPoint" />
          </mxGeometry>
        </mxCell>
        <mxCell id="aMIYp8ddDQIwAxlFogpo-115" value="" style="endArrow=none;html=1;rounded=0;fontSize=10;" edge="1" parent="1">
          <mxGeometry width="50" height="50" relative="1" as="geometry">
            <mxPoint x="1352.3700000000001" y="1120" as="sourcePoint" />
            <mxPoint x="1352.36" y="1100" as="targetPoint" />
          </mxGeometry>
        </mxCell>
        <mxCell id="aMIYp8ddDQIwAxlFogpo-116" value="" style="endArrow=none;html=1;rounded=0;fontSize=10;" edge="1" parent="1">
          <mxGeometry width="50" height="50" relative="1" as="geometry">
            <mxPoint x="1352.3700000000001" y="1060" as="sourcePoint" />
            <mxPoint x="1352.36" y="1040" as="targetPoint" />
          </mxGeometry>
        </mxCell>
        <mxCell id="aMIYp8ddDQIwAxlFogpo-117" value="" style="endArrow=none;html=1;rounded=0;fontSize=10;" edge="1" parent="1">
          <mxGeometry width="50" height="50" relative="1" as="geometry">
            <mxPoint x="1352.3700000000001" y="1220" as="sourcePoint" />
            <mxPoint x="1352.36" y="1200" as="targetPoint" />
          </mxGeometry>
        </mxCell>
        <mxCell id="aMIYp8ddDQIwAxlFogpo-118" value="" style="endArrow=none;html=1;rounded=0;fontSize=10;" edge="1" parent="1">
          <mxGeometry width="50" height="50" relative="1" as="geometry">
            <mxPoint x="1353.1200000000001" y="1250" as="sourcePoint" />
            <mxPoint x="1353.11" y="1230" as="targetPoint" />
          </mxGeometry>
        </mxCell>
        <mxCell id="aMIYp8ddDQIwAxlFogpo-119" value="" style="endArrow=none;html=1;rounded=0;fontSize=10;exitX=0.5;exitY=0;exitDx=0;exitDy=0;" edge="1" parent="1">
          <mxGeometry width="50" height="50" relative="1" as="geometry">
            <mxPoint x="914.6900000000003" y="1157" as="sourcePoint" />
            <mxPoint x="914.6900000000003" y="1127" as="targetPoint" />
          </mxGeometry>
        </mxCell>
        <mxCell id="aMIYp8ddDQIwAxlFogpo-120" value="" style="endArrow=none;html=1;rounded=0;fontSize=10;exitX=0.5;exitY=0;exitDx=0;exitDy=0;" edge="1" parent="1">
          <mxGeometry width="50" height="50" relative="1" as="geometry">
            <mxPoint x="914.6900000000003" y="1199.0000000000002" as="sourcePoint" />
            <mxPoint x="914.6900000000003" y="1169.0000000000002" as="targetPoint" />
          </mxGeometry>
        </mxCell>
        <mxCell id="aMIYp8ddDQIwAxlFogpo-121" value="" style="endArrow=none;html=1;rounded=0;fontSize=10;exitX=0.5;exitY=0;exitDx=0;exitDy=0;" edge="1" parent="1">
          <mxGeometry width="50" height="50" relative="1" as="geometry">
            <mxPoint x="914.6900000000003" y="1240.0000000000002" as="sourcePoint" />
            <mxPoint x="914.6900000000003" y="1210.0000000000002" as="targetPoint" />
          </mxGeometry>
        </mxCell>
        <mxCell id="aMIYp8ddDQIwAxlFogpo-122" value="" style="rounded=0;whiteSpace=wrap;html=1;" vertex="1" parent="1">
          <mxGeometry x="136" y="930" width="500" height="760" as="geometry" />
        </mxCell>
        <mxCell id="aMIYp8ddDQIwAxlFogpo-153" value="" style="rounded=0;whiteSpace=wrap;html=1;fontSize=10;strokeWidth=1;" vertex="1" parent="1">
          <mxGeometry x="136" y="930" width="502" height="60" as="geometry" />
        </mxCell>
        <mxCell id="aMIYp8ddDQIwAxlFogpo-154" value="" style="endArrow=none;html=1;rounded=0;fontSize=10;entryX=0.5;entryY=0;entryDx=0;entryDy=0;exitX=0.5;exitY=1;exitDx=0;exitDy=0;" edge="1" parent="1" source="aMIYp8ddDQIwAxlFogpo-122" target="aMIYp8ddDQIwAxlFogpo-153">
          <mxGeometry width="50" height="50" relative="1" as="geometry">
            <mxPoint x="198" y="1160" as="sourcePoint" />
            <mxPoint x="248" y="1110" as="targetPoint" />
          </mxGeometry>
        </mxCell>
        <mxCell id="aMIYp8ddDQIwAxlFogpo-155" value="&lt;b&gt;Admin&lt;/b&gt;" style="text;html=1;strokeColor=none;fillColor=none;align=center;verticalAlign=middle;whiteSpace=wrap;rounded=0;fontSize=10;" vertex="1" parent="1">
          <mxGeometry x="218" y="950" width="60" height="30" as="geometry" />
        </mxCell>
        <mxCell id="aMIYp8ddDQIwAxlFogpo-156" value="&lt;b&gt;Sistem&lt;/b&gt;" style="text;html=1;strokeColor=none;fillColor=none;align=center;verticalAlign=middle;whiteSpace=wrap;rounded=0;fontSize=10;" vertex="1" parent="1">
          <mxGeometry x="466" y="950" width="85" height="30" as="geometry" />
        </mxCell>
        <mxCell id="aMIYp8ddDQIwAxlFogpo-157" value="" style="rounded=1;whiteSpace=wrap;html=1;fontSize=10;strokeWidth=1;" vertex="1" parent="1">
          <mxGeometry x="190" y="1080" width="120" height="60" as="geometry" />
        </mxCell>
        <mxCell id="aMIYp8ddDQIwAxlFogpo-158" value="" style="rounded=1;whiteSpace=wrap;html=1;fontSize=10;strokeWidth=1;" vertex="1" parent="1">
          <mxGeometry x="448.5" y="1080" width="120" height="60" as="geometry" />
        </mxCell>
        <mxCell id="aMIYp8ddDQIwAxlFogpo-159" value="" style="rounded=1;whiteSpace=wrap;html=1;fontSize=10;strokeWidth=1;" vertex="1" parent="1">
          <mxGeometry x="450.5" y="1230" width="120" height="60" as="geometry" />
        </mxCell>
        <mxCell id="aMIYp8ddDQIwAxlFogpo-160" value="" style="strokeWidth=1;html=1;shape=mxgraph.flowchart.decision;whiteSpace=wrap;fontSize=10;" vertex="1" parent="1">
          <mxGeometry x="460.5" y="1330" width="100" height="100" as="geometry" />
        </mxCell>
        <mxCell id="aMIYp8ddDQIwAxlFogpo-161" value="" style="rounded=1;whiteSpace=wrap;html=1;fontSize=10;strokeWidth=1;" vertex="1" parent="1">
          <mxGeometry x="410" y="1470" width="70" height="60" as="geometry" />
        </mxCell>
        <mxCell id="aMIYp8ddDQIwAxlFogpo-165" value="" style="rounded=1;whiteSpace=wrap;html=1;fontSize=10;strokeWidth=1;" vertex="1" parent="1">
          <mxGeometry x="540" y="1470" width="70" height="60" as="geometry" />
        </mxCell>
        <mxCell id="aMIYp8ddDQIwAxlFogpo-166" value="Mengisis username dan password" style="text;html=1;strokeColor=none;fillColor=none;align=center;verticalAlign=middle;whiteSpace=wrap;rounded=0;fontSize=10;" vertex="1" parent="1">
          <mxGeometry x="202" y="1095" width="92" height="30" as="geometry" />
        </mxCell>
        <mxCell id="aMIYp8ddDQIwAxlFogpo-167" value="Menampilkan halaman login" style="text;html=1;strokeColor=none;fillColor=none;align=center;verticalAlign=middle;whiteSpace=wrap;rounded=0;fontSize=10;" vertex="1" parent="1">
          <mxGeometry x="465" y="1095" width="92" height="30" as="geometry" />
        </mxCell>
        <mxCell id="aMIYp8ddDQIwAxlFogpo-168" value="Cek Validasi username dan Password" style="text;html=1;strokeColor=none;fillColor=none;align=center;verticalAlign=middle;whiteSpace=wrap;rounded=0;fontSize=10;" vertex="1" parent="1">
          <mxGeometry x="462.5" y="1245" width="92" height="30" as="geometry" />
        </mxCell>
        <mxCell id="aMIYp8ddDQIwAxlFogpo-169" value="&lt;font style=&quot;font-size: 9px;&quot;&gt;Menampilkan pesan username dan Password salah&lt;/font&gt;" style="text;html=1;strokeColor=none;fillColor=none;align=center;verticalAlign=middle;whiteSpace=wrap;rounded=0;fontSize=10;" vertex="1" parent="1">
          <mxGeometry x="409" y="1490" width="72" height="25" as="geometry" />
        </mxCell>
        <mxCell id="aMIYp8ddDQIwAxlFogpo-170" value="&lt;font style=&quot;font-size: 9px;&quot;&gt;Menampilkan halaman home admin&lt;/font&gt;" style="text;html=1;strokeColor=none;fillColor=none;align=center;verticalAlign=middle;whiteSpace=wrap;rounded=0;fontSize=10;" vertex="1" parent="1">
          <mxGeometry x="538" y="1487.5" width="72" height="25" as="geometry" />
        </mxCell>
        <mxCell id="aMIYp8ddDQIwAxlFogpo-171" value="" style="endArrow=classic;html=1;rounded=0;fontSize=9;entryX=0.5;entryY=1;entryDx=0;entryDy=0;exitX=0;exitY=0.5;exitDx=0;exitDy=0;" edge="1" parent="1" source="aMIYp8ddDQIwAxlFogpo-169" target="aMIYp8ddDQIwAxlFogpo-157">
          <mxGeometry width="50" height="50" relative="1" as="geometry">
            <mxPoint x="300" y="1410" as="sourcePoint" />
            <mxPoint x="350" y="1360" as="targetPoint" />
            <Array as="points">
              <mxPoint x="250" y="1503" />
            </Array>
          </mxGeometry>
        </mxCell>
        <mxCell id="aMIYp8ddDQIwAxlFogpo-172" value="" style="endArrow=classic;html=1;rounded=0;fontSize=9;exitX=0.75;exitY=1;exitDx=0;exitDy=0;entryX=0;entryY=0.5;entryDx=0;entryDy=0;" edge="1" parent="1" source="aMIYp8ddDQIwAxlFogpo-157" target="aMIYp8ddDQIwAxlFogpo-159">
          <mxGeometry width="50" height="50" relative="1" as="geometry">
            <mxPoint x="350" y="1380" as="sourcePoint" />
            <mxPoint x="400" y="1330" as="targetPoint" />
            <Array as="points">
              <mxPoint x="280" y="1260" />
            </Array>
          </mxGeometry>
        </mxCell>
        <mxCell id="aMIYp8ddDQIwAxlFogpo-173" value="" style="endArrow=classic;html=1;rounded=0;fontSize=9;entryX=0.5;entryY=0;entryDx=0;entryDy=0;entryPerimeter=0;exitX=0.5;exitY=1;exitDx=0;exitDy=0;" edge="1" parent="1" source="aMIYp8ddDQIwAxlFogpo-159" target="aMIYp8ddDQIwAxlFogpo-160">
          <mxGeometry width="50" height="50" relative="1" as="geometry">
            <mxPoint x="300" y="1420" as="sourcePoint" />
            <mxPoint x="350" y="1370" as="targetPoint" />
          </mxGeometry>
        </mxCell>
        <mxCell id="aMIYp8ddDQIwAxlFogpo-174" value="" style="endArrow=classic;html=1;rounded=0;fontSize=9;entryX=0.5;entryY=0;entryDx=0;entryDy=0;exitX=0;exitY=0.5;exitDx=0;exitDy=0;exitPerimeter=0;" edge="1" parent="1" source="aMIYp8ddDQIwAxlFogpo-160" target="aMIYp8ddDQIwAxlFogpo-161">
          <mxGeometry width="50" height="50" relative="1" as="geometry">
            <mxPoint x="520.5" y="1300" as="sourcePoint" />
            <mxPoint x="520.5" y="1340" as="targetPoint" />
            <Array as="points">
              <mxPoint x="445" y="1380" />
            </Array>
          </mxGeometry>
        </mxCell>
        <mxCell id="aMIYp8ddDQIwAxlFogpo-175" value="" style="endArrow=classic;html=1;rounded=0;fontSize=9;entryX=0.5;entryY=0;entryDx=0;entryDy=0;exitX=1;exitY=0.5;exitDx=0;exitDy=0;exitPerimeter=0;" edge="1" parent="1" source="aMIYp8ddDQIwAxlFogpo-160" target="aMIYp8ddDQIwAxlFogpo-165">
          <mxGeometry width="50" height="50" relative="1" as="geometry">
            <mxPoint x="520.5" y="1300" as="sourcePoint" />
            <mxPoint x="520.5" y="1340" as="targetPoint" />
            <Array as="points">
              <mxPoint x="575" y="1380" />
            </Array>
          </mxGeometry>
        </mxCell>
        <mxCell id="aMIYp8ddDQIwAxlFogpo-176" value="" style="ellipse;html=1;shape=endState;fillColor=#000000;strokeColor=#ff0000;fontSize=9;" vertex="1" parent="1">
          <mxGeometry x="554.5" y="1580" width="30" height="30" as="geometry" />
        </mxCell>
        <mxCell id="aMIYp8ddDQIwAxlFogpo-177" value="" style="endArrow=classic;html=1;rounded=0;fontSize=9;entryX=0.5;entryY=0;entryDx=0;entryDy=0;exitX=0.429;exitY=1;exitDx=0;exitDy=0;exitPerimeter=0;" edge="1" parent="1" source="aMIYp8ddDQIwAxlFogpo-165" target="aMIYp8ddDQIwAxlFogpo-176">
          <mxGeometry width="50" height="50" relative="1" as="geometry">
            <mxPoint x="340" y="1480" as="sourcePoint" />
            <mxPoint x="390" y="1430" as="targetPoint" />
          </mxGeometry>
        </mxCell>
        <mxCell id="aMIYp8ddDQIwAxlFogpo-178" value="" style="ellipse;html=1;shape=startState;fillColor=#000000;strokeColor=#ff0000;fontSize=9;" vertex="1" parent="1">
          <mxGeometry x="497" y="1010" width="30" height="30" as="geometry" />
        </mxCell>
        <mxCell id="aMIYp8ddDQIwAxlFogpo-180" value="" style="endArrow=classic;html=1;rounded=0;fontSize=9;entryX=0.528;entryY=0.023;entryDx=0;entryDy=0;entryPerimeter=0;exitX=0.5;exitY=1;exitDx=0;exitDy=0;" edge="1" parent="1" source="aMIYp8ddDQIwAxlFogpo-178" target="aMIYp8ddDQIwAxlFogpo-158">
          <mxGeometry width="50" height="50" relative="1" as="geometry">
            <mxPoint x="380" y="1170" as="sourcePoint" />
            <mxPoint x="430" y="1120" as="targetPoint" />
          </mxGeometry>
        </mxCell>
        <mxCell id="aMIYp8ddDQIwAxlFogpo-181" value="True" style="text;html=1;strokeColor=none;fillColor=none;align=center;verticalAlign=middle;whiteSpace=wrap;rounded=0;fontSize=9;" vertex="1" parent="1">
          <mxGeometry x="383" y="1410" width="60" height="30" as="geometry" />
        </mxCell>
        <mxCell id="aMIYp8ddDQIwAxlFogpo-182" value="False" style="text;html=1;strokeColor=none;fillColor=none;align=center;verticalAlign=middle;whiteSpace=wrap;rounded=0;fontSize=9;" vertex="1" parent="1">
          <mxGeometry x="578" y="1410" width="60" height="30" as="geometry" />
        </mxCell>
        <mxCell id="aMIYp8ddDQIwAxlFogpo-183" value="" style="rounded=0;whiteSpace=wrap;html=1;" vertex="1" parent="1">
          <mxGeometry x="138" y="1800" width="722" height="780" as="geometry" />
        </mxCell>
        <mxCell id="aMIYp8ddDQIwAxlFogpo-184" value="" style="rounded=0;whiteSpace=wrap;html=1;fontSize=10;strokeWidth=1;" vertex="1" parent="1">
          <mxGeometry x="138" y="1800" width="722" height="60" as="geometry" />
        </mxCell>
        <mxCell id="aMIYp8ddDQIwAxlFogpo-185" value="" style="endArrow=none;html=1;rounded=0;fontSize=10;entryX=0.5;entryY=0;entryDx=0;entryDy=0;exitX=0.5;exitY=1;exitDx=0;exitDy=0;" edge="1" parent="1">
          <mxGeometry width="50" height="50" relative="1" as="geometry">
            <mxPoint x="390" y="2580" as="sourcePoint" />
            <mxPoint x="390" y="1800" as="targetPoint" />
          </mxGeometry>
        </mxCell>
        <mxCell id="aMIYp8ddDQIwAxlFogpo-186" value="&lt;b&gt;Pencari kos&lt;/b&gt;" style="text;html=1;strokeColor=none;fillColor=none;align=center;verticalAlign=middle;whiteSpace=wrap;rounded=0;fontSize=10;" vertex="1" parent="1">
          <mxGeometry x="220" y="1820" width="60" height="30" as="geometry" />
        </mxCell>
        <mxCell id="aMIYp8ddDQIwAxlFogpo-187" value="&lt;b&gt;Sistem&lt;/b&gt;" style="text;html=1;strokeColor=none;fillColor=none;align=center;verticalAlign=middle;whiteSpace=wrap;rounded=0;fontSize=10;" vertex="1" parent="1">
          <mxGeometry x="468" y="1820" width="85" height="30" as="geometry" />
        </mxCell>
        <mxCell id="aMIYp8ddDQIwAxlFogpo-210" value="" style="endArrow=none;html=1;rounded=0;fontSize=10;entryX=0.5;entryY=0;entryDx=0;entryDy=0;exitX=0.5;exitY=1;exitDx=0;exitDy=0;" edge="1" parent="1">
          <mxGeometry width="50" height="50" relative="1" as="geometry">
            <mxPoint x="638.67" y="2580" as="sourcePoint" />
            <mxPoint x="638.67" y="1800" as="targetPoint" />
          </mxGeometry>
        </mxCell>
        <mxCell id="aMIYp8ddDQIwAxlFogpo-211" value="&lt;b&gt;Penyedia kos&lt;/b&gt;" style="text;html=1;strokeColor=none;fillColor=none;align=center;verticalAlign=middle;whiteSpace=wrap;rounded=0;fontSize=10;" vertex="1" parent="1">
          <mxGeometry x="710" y="1820" width="85" height="30" as="geometry" />
        </mxCell>
        <mxCell id="aMIYp8ddDQIwAxlFogpo-212" value="" style="verticalLabelPosition=middle;verticalAlign=middle;html=1;shape=trapezoid;perimeter=trapezoidPerimeter;whiteSpace=wrap;size=0.23;arcSize=10;flipV=1;labelPosition=center;align=center;fontSize=9;strokeWidth=1;" vertex="1" parent="1">
          <mxGeometry x="198" y="2000" width="100" height="60" as="geometry" />
        </mxCell>
        <mxCell id="aMIYp8ddDQIwAxlFogpo-213" value="" style="verticalLabelPosition=middle;verticalAlign=middle;html=1;shape=trapezoid;perimeter=trapezoidPerimeter;whiteSpace=wrap;size=0.23;arcSize=10;flipV=1;labelPosition=center;align=center;fontSize=9;strokeWidth=1;" vertex="1" parent="1">
          <mxGeometry x="198" y="2470" width="100" height="60" as="geometry" />
        </mxCell>
        <mxCell id="aMIYp8ddDQIwAxlFogpo-215" value="" style="shape=parallelogram;perimeter=parallelogramPerimeter;whiteSpace=wrap;html=1;fixedSize=1;fontSize=9;strokeWidth=1;" vertex="1" parent="1">
          <mxGeometry x="440.5" y="2425" width="120" height="60" as="geometry" />
        </mxCell>
        <mxCell id="aMIYp8ddDQIwAxlFogpo-216" value="" style="strokeWidth=1;html=1;shape=mxgraph.flowchart.decision;whiteSpace=wrap;fontSize=9;" vertex="1" parent="1">
          <mxGeometry x="458.5" y="2275" width="100" height="100" as="geometry" />
        </mxCell>
        <mxCell id="aMIYp8ddDQIwAxlFogpo-217" value="" style="shape=parallelogram;perimeter=parallelogramPerimeter;whiteSpace=wrap;html=1;fixedSize=1;fontSize=9;strokeWidth=1;" vertex="1" parent="1">
          <mxGeometry x="452" y="2000" width="120" height="60" as="geometry" />
        </mxCell>
        <mxCell id="aMIYp8ddDQIwAxlFogpo-218" value="" style="rounded=0;whiteSpace=wrap;html=1;fontSize=9;strokeWidth=1;" vertex="1" parent="1">
          <mxGeometry x="188" y="2110" width="120" height="60" as="geometry" />
        </mxCell>
        <mxCell id="aMIYp8ddDQIwAxlFogpo-219" value="" style="shape=parallelogram;perimeter=parallelogramPerimeter;whiteSpace=wrap;html=1;fixedSize=1;fontSize=9;strokeWidth=1;" vertex="1" parent="1">
          <mxGeometry x="692.5" y="1930" width="120" height="60" as="geometry" />
        </mxCell>
        <mxCell id="aMIYp8ddDQIwAxlFogpo-221" value="" style="strokeWidth=1;html=1;shape=mxgraph.flowchart.direct_data;whiteSpace=wrap;fontSize=9;" vertex="1" parent="1">
          <mxGeometry x="468" y="1910" width="100" height="60" as="geometry" />
        </mxCell>
        <mxCell id="aMIYp8ddDQIwAxlFogpo-222" value="Database" style="text;html=1;strokeColor=none;fillColor=none;align=center;verticalAlign=middle;whiteSpace=wrap;rounded=0;fontSize=9;" vertex="1" parent="1">
          <mxGeometry x="488" y="1930" width="60" height="30" as="geometry" />
        </mxCell>
        <mxCell id="aMIYp8ddDQIwAxlFogpo-223" value="Menampilkan daftar kos terdekat" style="text;html=1;strokeColor=none;fillColor=none;align=center;verticalAlign=middle;whiteSpace=wrap;rounded=0;fontSize=9;" vertex="1" parent="1">
          <mxGeometry x="464.5" y="2020" width="95" height="30" as="geometry" />
        </mxCell>
        <mxCell id="aMIYp8ddDQIwAxlFogpo-224" value="Akses admin" style="text;html=1;strokeColor=none;fillColor=none;align=center;verticalAlign=middle;whiteSpace=wrap;rounded=0;fontSize=9;" vertex="1" parent="1">
          <mxGeometry x="202" y="2010" width="95" height="30" as="geometry" />
        </mxCell>
        <mxCell id="aMIYp8ddDQIwAxlFogpo-225" value="input daftar kos" style="text;html=1;strokeColor=none;fillColor=none;align=center;verticalAlign=middle;whiteSpace=wrap;rounded=0;fontSize=9;" vertex="1" parent="1">
          <mxGeometry x="705" y="1945" width="95" height="30" as="geometry" />
        </mxCell>
        <mxCell id="aMIYp8ddDQIwAxlFogpo-226" value="Memilih kos" style="text;html=1;strokeColor=none;fillColor=none;align=center;verticalAlign=middle;whiteSpace=wrap;rounded=0;fontSize=9;" vertex="1" parent="1">
          <mxGeometry x="200.5" y="2125" width="95" height="30" as="geometry" />
        </mxCell>
        <mxCell id="aMIYp8ddDQIwAxlFogpo-227" value="Sesuai?" style="text;html=1;strokeColor=none;fillColor=none;align=center;verticalAlign=middle;whiteSpace=wrap;rounded=0;fontSize=9;" vertex="1" parent="1">
          <mxGeometry x="476" y="2315" width="60" height="30" as="geometry" />
        </mxCell>
        <mxCell id="aMIYp8ddDQIwAxlFogpo-228" value="Menampilkan rute ke kos" style="text;html=1;strokeColor=none;fillColor=none;align=center;verticalAlign=middle;whiteSpace=wrap;rounded=0;fontSize=9;" vertex="1" parent="1">
          <mxGeometry x="470.5" y="2440" width="60" height="30" as="geometry" />
        </mxCell>
        <mxCell id="aMIYp8ddDQIwAxlFogpo-229" value="Mengunjungi kos" style="text;html=1;strokeColor=none;fillColor=none;align=center;verticalAlign=middle;whiteSpace=wrap;rounded=0;fontSize=9;" vertex="1" parent="1">
          <mxGeometry x="218" y="2485" width="60" height="30" as="geometry" />
        </mxCell>
        <mxCell id="aMIYp8ddDQIwAxlFogpo-230" value="" style="endArrow=classic;html=1;rounded=0;fontSize=9;entryX=0.5;entryY=0;entryDx=0;entryDy=0;exitX=0.428;exitY=1.017;exitDx=0;exitDy=0;exitPerimeter=0;" edge="1" parent="1" source="aMIYp8ddDQIwAxlFogpo-221" target="aMIYp8ddDQIwAxlFogpo-217">
          <mxGeometry width="50" height="50" relative="1" as="geometry">
            <mxPoint x="390" y="2330" as="sourcePoint" />
            <mxPoint x="440" y="2280" as="targetPoint" />
          </mxGeometry>
        </mxCell>
        <mxCell id="aMIYp8ddDQIwAxlFogpo-231" value="" style="endArrow=classic;html=1;rounded=0;fontSize=9;exitX=0.463;exitY=1.023;exitDx=0;exitDy=0;exitPerimeter=0;entryX=1;entryY=0.5;entryDx=0;entryDy=0;" edge="1" parent="1" source="aMIYp8ddDQIwAxlFogpo-217" target="aMIYp8ddDQIwAxlFogpo-218">
          <mxGeometry width="50" height="50" relative="1" as="geometry">
            <mxPoint x="490" y="2180" as="sourcePoint" />
            <mxPoint x="540" y="2130" as="targetPoint" />
            <Array as="points">
              <mxPoint x="510" y="2140" />
            </Array>
          </mxGeometry>
        </mxCell>
        <mxCell id="aMIYp8ddDQIwAxlFogpo-232" value="" style="endArrow=classic;html=1;rounded=0;fontSize=9;exitX=0.5;exitY=1;exitDx=0;exitDy=0;entryX=0.5;entryY=0;entryDx=0;entryDy=0;entryPerimeter=0;" edge="1" parent="1" source="aMIYp8ddDQIwAxlFogpo-218" target="aMIYp8ddDQIwAxlFogpo-216">
          <mxGeometry width="50" height="50" relative="1" as="geometry">
            <mxPoint x="490" y="2180" as="sourcePoint" />
            <mxPoint x="540" y="2130" as="targetPoint" />
            <Array as="points">
              <mxPoint x="250" y="2190" />
              <mxPoint x="500" y="2190" />
            </Array>
          </mxGeometry>
        </mxCell>
        <mxCell id="aMIYp8ddDQIwAxlFogpo-233" value="" style="endArrow=classic;html=1;rounded=0;fontSize=9;exitX=0;exitY=0.5;exitDx=0;exitDy=0;exitPerimeter=0;entryX=0;entryY=0.5;entryDx=0;entryDy=0;" edge="1" parent="1" source="aMIYp8ddDQIwAxlFogpo-216" target="aMIYp8ddDQIwAxlFogpo-218">
          <mxGeometry width="50" height="50" relative="1" as="geometry">
            <mxPoint x="640" y="2290" as="sourcePoint" />
            <mxPoint x="690" y="2240" as="targetPoint" />
            <Array as="points">
              <mxPoint x="160" y="2325" />
              <mxPoint x="160" y="2140" />
            </Array>
          </mxGeometry>
        </mxCell>
        <mxCell id="aMIYp8ddDQIwAxlFogpo-234" value="" style="endArrow=classic;html=1;rounded=0;fontSize=9;entryX=0;entryY=0.25;entryDx=0;entryDy=0;" edge="1" parent="1" source="aMIYp8ddDQIwAxlFogpo-224" target="aMIYp8ddDQIwAxlFogpo-223">
          <mxGeometry width="50" height="50" relative="1" as="geometry">
            <mxPoint x="650" y="2290" as="sourcePoint" />
            <mxPoint x="700" y="2240" as="targetPoint" />
          </mxGeometry>
        </mxCell>
        <mxCell id="aMIYp8ddDQIwAxlFogpo-235" value="" style="endArrow=classic;html=1;rounded=0;fontSize=9;entryX=1;entryY=0.5;entryDx=0;entryDy=0;entryPerimeter=0;exitX=0;exitY=0.5;exitDx=0;exitDy=0;" edge="1" parent="1" source="aMIYp8ddDQIwAxlFogpo-225" target="aMIYp8ddDQIwAxlFogpo-221">
          <mxGeometry width="50" height="50" relative="1" as="geometry">
            <mxPoint x="650" y="2290" as="sourcePoint" />
            <mxPoint x="700" y="2240" as="targetPoint" />
          </mxGeometry>
        </mxCell>
        <mxCell id="aMIYp8ddDQIwAxlFogpo-236" value="" style="endArrow=classic;html=1;rounded=0;fontSize=9;exitX=0.5;exitY=1;exitDx=0;exitDy=0;entryX=1;entryY=0.5;entryDx=0;entryDy=0;" edge="1" parent="1" source="aMIYp8ddDQIwAxlFogpo-215" target="aMIYp8ddDQIwAxlFogpo-213">
          <mxGeometry width="50" height="50" relative="1" as="geometry">
            <mxPoint x="620" y="2340" as="sourcePoint" />
            <mxPoint x="670" y="2290" as="targetPoint" />
            <Array as="points">
              <mxPoint x="500" y="2510" />
            </Array>
          </mxGeometry>
        </mxCell>
        <mxCell id="aMIYp8ddDQIwAxlFogpo-237" value="" style="endArrow=classic;html=1;rounded=0;fontSize=9;exitX=0.5;exitY=1;exitDx=0;exitDy=0;exitPerimeter=0;entryX=0.567;entryY=0.009;entryDx=0;entryDy=0;entryPerimeter=0;" edge="1" parent="1" source="aMIYp8ddDQIwAxlFogpo-216" target="aMIYp8ddDQIwAxlFogpo-215">
          <mxGeometry width="50" height="50" relative="1" as="geometry">
            <mxPoint x="620" y="2340" as="sourcePoint" />
            <mxPoint x="670" y="2290" as="targetPoint" />
          </mxGeometry>
        </mxCell>
        <mxCell id="aMIYp8ddDQIwAxlFogpo-238" value="T" style="text;html=1;strokeColor=none;fillColor=none;align=center;verticalAlign=middle;whiteSpace=wrap;rounded=0;fontSize=9;" vertex="1" parent="1">
          <mxGeometry x="400.5" y="2300" width="60" height="30" as="geometry" />
        </mxCell>
        <mxCell id="aMIYp8ddDQIwAxlFogpo-239" value="Y" style="text;html=1;strokeColor=none;fillColor=none;align=center;verticalAlign=middle;whiteSpace=wrap;rounded=0;fontSize=9;" vertex="1" parent="1">
          <mxGeometry x="508" y="2395" width="60" height="30" as="geometry" />
        </mxCell>
        <mxCell id="aMIYp8ddDQIwAxlFogpo-241" value="" style="rounded=0;whiteSpace=wrap;html=1;fontSize=9;strokeWidth=2;fillColor=#f5f5f5;fontColor=#333333;strokeColor=#666666;" vertex="1" parent="1">
          <mxGeometry x="1115" y="1880" width="905" height="530" as="geometry" />
        </mxCell>
        <mxCell id="aMIYp8ddDQIwAxlFogpo-242" value="" style="ellipse;whiteSpace=wrap;html=1;aspect=fixed;fontSize=9;strokeWidth=2;" vertex="1" parent="1">
          <mxGeometry x="1171" y="1900" width="60" height="60" as="geometry" />
        </mxCell>
        <mxCell id="aMIYp8ddDQIwAxlFogpo-243" value="Logo" style="text;html=1;strokeColor=none;fillColor=none;align=center;verticalAlign=middle;whiteSpace=wrap;rounded=0;fontSize=9;" vertex="1" parent="1">
          <mxGeometry x="1170" y="1916" width="60" height="30" as="geometry" />
        </mxCell>
        <mxCell id="aMIYp8ddDQIwAxlFogpo-245" value="" style="rounded=0;whiteSpace=wrap;html=1;fontSize=10;strokeWidth=2;fillColor=#f5f5f5;fontColor=#333333;strokeColor=#666666;" vertex="1" parent="1">
          <mxGeometry x="1115" y="1990" width="905" height="310" as="geometry" />
        </mxCell>
        <mxCell id="aMIYp8ddDQIwAxlFogpo-247" value="" style="rounded=0;whiteSpace=wrap;html=1;fontSize=10;strokeWidth=1;" vertex="1" parent="1">
          <mxGeometry x="1670" y="1920" width="100" height="26" as="geometry" />
        </mxCell>
        <mxCell id="aMIYp8ddDQIwAxlFogpo-248" value="" style="rounded=0;whiteSpace=wrap;html=1;fontSize=10;strokeWidth=1;" vertex="1" parent="1">
          <mxGeometry x="1780" y="1920" width="100" height="26" as="geometry" />
        </mxCell>
        <mxCell id="aMIYp8ddDQIwAxlFogpo-249" value="" style="rounded=0;whiteSpace=wrap;html=1;fontSize=10;strokeWidth=1;" vertex="1" parent="1">
          <mxGeometry x="1890" y="1920" width="100" height="26" as="geometry" />
        </mxCell>
        <mxCell id="aMIYp8ddDQIwAxlFogpo-250" value="&lt;b&gt;Beranda&lt;/b&gt;" style="text;html=1;strokeColor=none;fillColor=none;align=center;verticalAlign=middle;whiteSpace=wrap;rounded=0;fontSize=10;" vertex="1" parent="1">
          <mxGeometry x="1690" y="1920" width="60" height="30" as="geometry" />
        </mxCell>
        <mxCell id="aMIYp8ddDQIwAxlFogpo-251" value="&lt;b&gt;Pencarian&lt;/b&gt;" style="text;html=1;strokeColor=none;fillColor=none;align=center;verticalAlign=middle;whiteSpace=wrap;rounded=0;fontSize=10;" vertex="1" parent="1">
          <mxGeometry x="1800" y="1920" width="60" height="30" as="geometry" />
        </mxCell>
        <mxCell id="aMIYp8ddDQIwAxlFogpo-252" value="&lt;b&gt;Login&lt;/b&gt;" style="text;html=1;strokeColor=none;fillColor=none;align=center;verticalAlign=middle;whiteSpace=wrap;rounded=0;fontSize=10;" vertex="1" parent="1">
          <mxGeometry x="1910" y="1918" width="60" height="30" as="geometry" />
        </mxCell>
        <mxCell id="aMIYp8ddDQIwAxlFogpo-253" value="Footer" style="text;html=1;strokeColor=none;fillColor=none;align=center;verticalAlign=middle;whiteSpace=wrap;rounded=0;fontSize=10;" vertex="1" parent="1">
          <mxGeometry x="1510" y="2338" width="60" height="30" as="geometry" />
        </mxCell>
        <mxCell id="aMIYp8ddDQIwAxlFogpo-254" value="Informasi" style="text;html=1;strokeColor=none;fillColor=none;align=center;verticalAlign=middle;whiteSpace=wrap;rounded=0;fontSize=10;" vertex="1" parent="1">
          <mxGeometry x="1510" y="2140" width="60" height="30" as="geometry" />
        </mxCell>
        <mxCell id="aMIYp8ddDQIwAxlFogpo-255" value="Header" style="text;html=1;strokeColor=none;fillColor=none;align=center;verticalAlign=middle;whiteSpace=wrap;rounded=0;fontSize=10;" vertex="1" parent="1">
          <mxGeometry x="1500" y="1925" width="60" height="30" as="geometry" />
        </mxCell>
        <mxCell id="aMIYp8ddDQIwAxlFogpo-257" value="" style="rounded=0;whiteSpace=wrap;html=1;fontSize=9;strokeWidth=2;fillColor=#f5f5f5;fontColor=#333333;strokeColor=#666666;" vertex="1" parent="1">
          <mxGeometry x="1115" y="2450" width="905" height="530" as="geometry" />
        </mxCell>
        <mxCell id="aMIYp8ddDQIwAxlFogpo-258" value="" style="ellipse;whiteSpace=wrap;html=1;aspect=fixed;fontSize=9;strokeWidth=2;" vertex="1" parent="1">
          <mxGeometry x="1171" y="2470" width="60" height="60" as="geometry" />
        </mxCell>
        <mxCell id="aMIYp8ddDQIwAxlFogpo-259" value="Logo" style="text;html=1;strokeColor=none;fillColor=none;align=center;verticalAlign=middle;whiteSpace=wrap;rounded=0;fontSize=9;" vertex="1" parent="1">
          <mxGeometry x="1170" y="2486" width="60" height="30" as="geometry" />
        </mxCell>
        <mxCell id="aMIYp8ddDQIwAxlFogpo-260" value="" style="rounded=0;whiteSpace=wrap;html=1;fontSize=10;strokeWidth=2;fillColor=#f5f5f5;fontColor=#333333;strokeColor=#666666;" vertex="1" parent="1">
          <mxGeometry x="1115" y="2560" width="905" height="310" as="geometry" />
        </mxCell>
        <mxCell id="aMIYp8ddDQIwAxlFogpo-261" value="" style="rounded=0;whiteSpace=wrap;html=1;fontSize=10;strokeWidth=1;" vertex="1" parent="1">
          <mxGeometry x="1670" y="2490" width="100" height="26" as="geometry" />
        </mxCell>
        <mxCell id="aMIYp8ddDQIwAxlFogpo-262" value="" style="rounded=0;whiteSpace=wrap;html=1;fontSize=10;strokeWidth=1;" vertex="1" parent="1">
          <mxGeometry x="1780" y="2490" width="100" height="26" as="geometry" />
        </mxCell>
        <mxCell id="aMIYp8ddDQIwAxlFogpo-263" value="" style="rounded=0;whiteSpace=wrap;html=1;fontSize=10;strokeWidth=1;" vertex="1" parent="1">
          <mxGeometry x="1890" y="2490" width="100" height="26" as="geometry" />
        </mxCell>
        <mxCell id="aMIYp8ddDQIwAxlFogpo-264" value="&lt;b&gt;Beranda&lt;/b&gt;" style="text;html=1;strokeColor=none;fillColor=none;align=center;verticalAlign=middle;whiteSpace=wrap;rounded=0;fontSize=10;" vertex="1" parent="1">
          <mxGeometry x="1690" y="2490" width="60" height="30" as="geometry" />
        </mxCell>
        <mxCell id="aMIYp8ddDQIwAxlFogpo-265" value="&lt;b&gt;Pencarian&lt;/b&gt;" style="text;html=1;strokeColor=none;fillColor=none;align=center;verticalAlign=middle;whiteSpace=wrap;rounded=0;fontSize=10;" vertex="1" parent="1">
          <mxGeometry x="1800" y="2490" width="60" height="30" as="geometry" />
        </mxCell>
        <mxCell id="aMIYp8ddDQIwAxlFogpo-266" value="&lt;b&gt;Login&lt;/b&gt;" style="text;html=1;strokeColor=none;fillColor=none;align=center;verticalAlign=middle;whiteSpace=wrap;rounded=0;fontSize=10;" vertex="1" parent="1">
          <mxGeometry x="1910" y="2488" width="60" height="30" as="geometry" />
        </mxCell>
        <mxCell id="aMIYp8ddDQIwAxlFogpo-267" value="Footer" style="text;html=1;strokeColor=none;fillColor=none;align=center;verticalAlign=middle;whiteSpace=wrap;rounded=0;fontSize=10;" vertex="1" parent="1">
          <mxGeometry x="1510" y="2908" width="60" height="30" as="geometry" />
        </mxCell>
        <mxCell id="aMIYp8ddDQIwAxlFogpo-269" value="Header" style="text;html=1;strokeColor=none;fillColor=none;align=center;verticalAlign=middle;whiteSpace=wrap;rounded=0;fontSize=10;" vertex="1" parent="1">
          <mxGeometry x="1500" y="2495" width="60" height="30" as="geometry" />
        </mxCell>
        <mxCell id="aMIYp8ddDQIwAxlFogpo-274" value="" style="rounded=1;whiteSpace=wrap;html=1;fontSize=10;strokeWidth=1;arcSize=1;" vertex="1" parent="1">
          <mxGeometry x="1405" y="2600" width="305" height="240" as="geometry" />
        </mxCell>
        <mxCell id="aMIYp8ddDQIwAxlFogpo-275" value="&lt;b&gt;LOGIN USER&lt;/b&gt;" style="text;html=1;strokeColor=none;fillColor=none;align=center;verticalAlign=middle;whiteSpace=wrap;rounded=0;fontSize=10;" vertex="1" parent="1">
          <mxGeometry x="1504.3700000000001" y="2630" width="106.25" height="30" as="geometry" />
        </mxCell>
        <mxCell id="aMIYp8ddDQIwAxlFogpo-276" value="" style="rounded=0;whiteSpace=wrap;html=1;fontSize=10;strokeWidth=1;" vertex="1" parent="1">
          <mxGeometry x="1481.25" y="2680" width="152.5" height="30" as="geometry" />
        </mxCell>
        <mxCell id="aMIYp8ddDQIwAxlFogpo-277" value="" style="rounded=0;whiteSpace=wrap;html=1;fontSize=10;strokeWidth=1;" vertex="1" parent="1">
          <mxGeometry x="1481.24" y="2730" width="152.5" height="30" as="geometry" />
        </mxCell>
        <mxCell id="aMIYp8ddDQIwAxlFogpo-278" value="Masukan username" style="text;html=1;align=center;verticalAlign=middle;whiteSpace=wrap;rounded=0;fontSize=10;fontColor=#CCCCCC;" vertex="1" parent="1">
          <mxGeometry x="1508.11" y="2680" width="102.51" height="30" as="geometry" />
        </mxCell>
        <mxCell id="aMIYp8ddDQIwAxlFogpo-279" value="Masukan password" style="text;html=1;align=center;verticalAlign=middle;whiteSpace=wrap;rounded=0;fontSize=10;fontColor=#CCCCCC;" vertex="1" parent="1">
          <mxGeometry x="1506.25" y="2730" width="102.51" height="30" as="geometry" />
        </mxCell>
        <mxCell id="aMIYp8ddDQIwAxlFogpo-281" value="" style="rounded=0;whiteSpace=wrap;html=1;fontSize=10;strokeWidth=1;" vertex="1" parent="1">
          <mxGeometry x="1481.25" y="2790" width="58.75" height="20" as="geometry" />
        </mxCell>
        <mxCell id="aMIYp8ddDQIwAxlFogpo-282" value="&lt;b&gt;&lt;font color=&quot;#1a1a1a&quot;&gt;Masuk&lt;/font&gt;&lt;/b&gt;" style="text;html=1;strokeColor=none;fillColor=none;align=center;verticalAlign=middle;whiteSpace=wrap;rounded=0;fontSize=10;fontColor=#CCCCCC;" vertex="1" parent="1">
          <mxGeometry x="1481.25" y="2785" width="60" height="30" as="geometry" />
        </mxCell>
      </root>
    </mxGraphModel>
  </diagram>
</mxfile>
